{"title":"Fun - Some Nights {M4A+MP4} (1080p) x264 [VX] [P2PDL]","uid":7696006,"size":57836416,"categoryP":"video","categoryS":"music_videos","magnet":"?xt=urn:btih:a5b8fad54d94fa636448d95a153b4a5a2cafb7c7&amp;dn=Fun+-+Some+Nights+%7BM4A%2BMP4%7D+%281080p%29+x264+%5BVX%5D+%5BP2PDL%5D&amp;tr=udp%3A%2F%2Ftracker.openbittorrent.com%3A80&amp;tr=udp%3A%2F%2Fopen.demonii.com%3A1337&amp;tr=udp%3A%2F%2Ftracker.coppersurfer.tk%3A6969&amp;tr=udp%3A%2F%2Fexodus.desync.com%3A6969","seeders":1,"leechers":18,"uploader":"Vitamin_X","files":-1,"time":1349363376,"description":"Cover: \n &lt;a href=&quot;\nhttp://www.shotpix.com/images/61362736088321664019.jpg&quot; rel=&quot;nofollow&quot; target=&quot;_NEW&quot;&gt;\nhttp://www.shotpix.com/images/61362736088321664019.jpg&lt;/a&gt;\n\n\nRelease Title: Fun. - Some Nights (2012)\n\nFun.'s music video for 'Some Nights' from the full-length album, Some Nights (C) WMG Music,\n\n\n                          1080p Full HD MP4 Video\n                                    +\n                           96 Kbps/VBR M4A Audio\n\n\nSing Along!\nEnglish subtitles included.\n\n\nGeneral\nComplete name                  : Fun - Some Nights  (1080p) x264 [VX] [P2PDL].mp4\nFormat                         : MPEG-4\nFormat profile                 : Base Media / Version 2\nFile size                      : 51.6 MiB\nDuration                       : 5mn 39s\nOverall bit rate mode          : Variable\nOverall bit rate               : 1 273 Kbps\n\n\nVideo\nID                             : 1\nFormat                         : AVC\nFormat/Info                    : Advanced Video Codec\nDuration                       : 5mn 39s\nBit rate mode                  : Variable\nBit rate                       : 1 138 Kbps\nWidth                          : 1 916 pixels\nHeight                         : 780 pixels\nDisplay aspect ratio           : 2.456\nFrame rate mode                : Variable\nFrame rate                     : 23.976 fps\nBit depth                      : 8 bits\nScan type                      : Progressive\nStream size                    : 46.2 MiB (90%)\nWriting library                : x264 core 125\n\n\nAudio\nID                             : 2\nFormat                         : AAC\nFormat/Info                    : Advanced Audio Codec\nFormat profile                 : LC\nDuration                       : 5mn 39s\nBit rate mode                  : Variable\nBit rate                       : 127 Kbps\nMaximum bit rate               : 208 Kbps\nChannel(s)                     : 2 channels\nChannel positions              : Front: L R\nSampling rate                  : 48.0 KHz\nStream size                    : 5.15 MiB (10%)\n\n\nSubtitle                       : Yes (English)\n\n\n\n\nScreens:\n\n &lt;a href=&quot;\nhttp://www.shotpix.com/images/59614389043340582439.jpg&quot; rel=&quot;nofollow&quot; target=&quot;_NEW&quot;&gt;\nhttp://www.shotpix.com/images/59614389043340582439.jpg&lt;/a&gt; &lt;a href=&quot;\nhttp://www.shotpix.com/images/10042623235832216331.jpg&quot; rel=&quot;nofollow&quot; target=&quot;_NEW&quot;&gt;\nhttp://www.shotpix.com/images/10042623235832216331.jpg&lt;/a&gt;\n\n\nThumbs:\n &lt;a href=&quot;\nhttp://www.shotpix.com/images/76611015190708856200.jpg&quot; rel=&quot;nofollow&quot; target=&quot;_NEW&quot;&gt;\nhttp://www.shotpix.com/images/76611015190708856200.jpg&lt;/a&gt;\n\n\n------------------------------------------------------------------------\n\n\nNotes:\n\n* Best played on VLC Media Player.\n* Install shark007 codecs in case of any kind of problem in playback (For non-VLC Media Player users).\n* Alternatively, install Core AVC codecs, the fastest decoder that there is coupled with Community Center Codec Pack and play on Windows Media Player Classic.\n* Read NFO\n* Help in seeding this torrent as much as you can. \n\n\n\nGreets to: srkfan, VYTO, MgB, staff members at ExtraTorrent, TPB,KAT, 1337x, PublicHD, Ahashare,\nSilverTorrent, TorrentMafia, P2PDL, and all others\n\n\nEncoder Notes: Looking For Early Access To Anything You Can Provide DVDScr, R5, DVDRips, BluRay, Direct Audio, Early Music\nReleases, Seedboxes, Links, Dedicated Servers anything u can provide, Advance / Promo CDs/DVDs. If You Got anything to\noffer contact me at &quot;&lt;a class=&quot;__cf_email__&quot; href=&quot;/cdn-cgi/l/email-protection&quot; data-cfemail=&quot;75161a1b0114160135011c1b0c185b1000&quot;&gt;[email&amp;#160;protected]&lt;/a&gt;&lt;script cf-hash='f9e31' type=&quot;text/javascript&quot;&gt;\n/* &lt;![CDATA[ */!function(){try{var t=&quot;currentScript&quot;in document?document.currentScript:function(){for(var t=document.getElementsByTagName(&quot;script&quot;),e=t.length;e--;)if(t[e].getAttribute(&quot;cf-hash&quot;))return t[e]}();if(t&amp;&amp;t.previousSibling){var e,r,n,i,c=t.previousSibling,a=c.getAttribute(&quot;data-cfemail&quot;);if(a){for(e=&quot;&quot;,r=parseInt(a.substr(0,2),16),n=2;a.length-n;n+=2)i=parseInt(a.substr(n,2),16)^r,e+=String.fromCharCode(i);e=document.createTextNode(e),c.parentNode.replaceChild(e,c)}}}catch(u){}}();/* ]]&gt; */&lt;/script&gt;&quot;\n\n\nFacebook Fan Page: http : // www . facebook . com / p2pdl\n\n                                   Enjoy!","torrent":{"xt":"urn:btih:a5b8fad54d94fa636448d95a153b4a5a2cafb7c7","amp;dn":"Fun+-+Some+Nights+%7BM4A%2BMP4%7D+%281080p%29+x264+%5BVX%5D+%5BP2PDL%5D","amp;tr":["udp%3A%2F%2Ftracker.openbittorrent.com%3A80","udp%3A%2F%2Fopen.demonii.com%3A1337","udp%3A%2F%2Ftracker.coppersurfer.tk%3A6969","udp%3A%2F%2Fexodus.desync.com%3A6969"],"infoHash":"a5b8fad54d94fa636448d95a153b4a5a2cafb7c7","infoHashBuffer":{"type":"Buffer","data":[165,184,250,213,77,148,250,99,100,72,217,90,21,59,74,90,44,175,183,199]},"announce":[],"urlList":[]}}